<?xml version="1.0" encoding="UTF-8" standalone="no"?><!-- Generator: Gravit.io --><svg xmlns="http://www.w3.org/2000/svg" xmlns:xlink="http://www.w3.org/1999/xlink" style="isolation:isolate" viewBox="0 0 500 500" width="500pt" height="500pt"><defs><clipPath id="_clipPath_hzlzqe8xkLC0NOQCLwRHthSpm0WLZoFT"><rect width="500" height="500"/></clipPath></defs><g clip-path="url(#_clipPath_hzlzqe8xkLC0NOQCLwRHthSpm0WLZoFT)"><rect width="500" height="500" style="fill:rgb(28,223,57)"/><g style="isolation:isolate"><g style="isolation:isolate"><path d=" M 100 202.073 L 100 115.47 L 350 259.808 L 350 346.41 L 100 202.073 Z " fill="rgb(191,70,70)" vector-effect="non-scaling-stroke" stroke-width="1" stroke="rgb(0,0,0)" stroke-linejoin="miter" stroke-linecap="square" stroke-miterlimit="3"/><path d=" M 350 346.41 L 425 303.109 L 425 216.506 L 350 259.808" fill="rgb(191,70,70)" vector-effect="non-scaling-stroke" stroke-width="1" stroke="rgb(0,0,0)" stroke-linejoin="miter" stroke-linecap="square" stroke-miterlimit="3"/><path d=" M 100 115.47 L 175 72.169 L 425 216.506 L 350 259.808 L 100 115.47 Z " fill="rgb(255,255,255)" vector-effect="non-scaling-stroke" stroke-width="1" stroke="rgb(0,0,0)" stroke-linejoin="miter" stroke-linecap="square" stroke-miterlimit="3"/></g><g style="isolation:isolate"><path d=" M 200 259.808 L 200 202.073 L 250 230.94 L 250 288.675" fill="rgb(209,209,209)" vector-effect="non-scaling-stroke" stroke-width="1" stroke="rgb(0,0,0)" stroke-linejoin="miter" stroke-linecap="square" stroke-miterlimit="3"/><line x1="225" y1="274.241" x2="225" y2="216.506" vector-effect="non-scaling-stroke" stroke-width="1" stroke="rgb(0,0,0)" stroke-linejoin="miter" stroke-linecap="square" stroke-miterlimit="3"/><path d=" M 206.25 212.898 L 218.75 220.115 L 218.75 241.765 L 206.25 234.549 L 206.25 212.898 Z " fill="rgb(19,143,244)" vector-effect="non-scaling-stroke" stroke-width="1" stroke="rgb(0,0,0)" stroke-linejoin="miter" stroke-linecap="square" stroke-miterlimit="3"/><path d=" M 231.25 227.332 L 231.25 248.982 L 243.75 256.199 L 243.75 234.549 L 231.25 227.332 Z " fill="rgb(19,143,244)" vector-effect="non-scaling-stroke" stroke-width="1" stroke="rgb(0,0,0)" stroke-linejoin="miter" stroke-linecap="square" stroke-miterlimit="3"/><line x1="215.625" y1="247.178" x2="218.75" y2="248.982" vector-effect="non-scaling-stroke" stroke-width="1" stroke="rgb(0,0,0)" stroke-linejoin="miter" stroke-linecap="square" stroke-miterlimit="3"/><line x1="231.25" y1="256.199" x2="234.375" y2="258.003" vector-effect="non-scaling-stroke" stroke-width="1" stroke="rgb(0,0,0)" stroke-linejoin="miter" stroke-linecap="square" stroke-miterlimit="3"/></g><g style="isolation:isolate"><path d=" M 125 158.771 L 175 187.639 L 175 216.506 L 125 187.639 L 125 158.771 Z " fill="rgb(116,116,116)" vector-effect="non-scaling-stroke" stroke-width="1" stroke="rgb(0,0,0)" stroke-linejoin="miter" stroke-linecap="square" stroke-miterlimit="3"/><path d=" M 171.875 189.443 L 171.875 211.094 L 128.125 185.835 L 128.125 164.184 L 171.875 189.443 Z " fill="rgb(19,143,244)" vector-effect="non-scaling-stroke" stroke-width="1" stroke="rgb(0,0,0)" stroke-linejoin="miter" stroke-linecap="square" stroke-miterlimit="3"/></g><g style="isolation:isolate"><path d=" M 275 245.374 L 325 274.241 L 325 303.109 L 275 274.241 L 275 245.374 Z " fill="rgb(116,116,116)" vector-effect="non-scaling-stroke" stroke-width="1" stroke="rgb(0,0,0)" stroke-linejoin="miter" stroke-linecap="square" stroke-miterlimit="3"/><path d=" M 321.875 276.046 L 321.875 297.696 L 278.125 272.437 L 278.125 250.787 L 321.875 276.046 Z " fill="rgb(19,143,244)" vector-effect="non-scaling-stroke" stroke-width="1" stroke="rgb(0,0,0)" stroke-linejoin="miter" stroke-linecap="square" stroke-miterlimit="3"/></g><g style="isolation:isolate"><path d=" M 350 274.241 L 75 115.47 L 175 57.735 L 450 216.506 L 350 274.241 Z " fill="rgb(116,116,116)" vector-effect="non-scaling-stroke" stroke-width="1" stroke="rgb(0,0,0)" stroke-linejoin="miter" stroke-linecap="square" stroke-miterlimit="3"/><path d=" M 350 245.374 L 100 101.036 L 175 57.735 L 425 202.073 L 350 245.374 Z " fill="rgb(116,116,116)" vector-effect="non-scaling-stroke" stroke-width="1" stroke="rgb(0,0,0)" stroke-linejoin="miter" stroke-linecap="square" stroke-miterlimit="3"/><line x1="350" y1="245.374" x2="350" y2="274.241" vector-effect="non-scaling-stroke" stroke-width="1" stroke="rgb(0,0,0)" stroke-linejoin="miter" stroke-linecap="square" stroke-miterlimit="3"/></g><g style="isolation:isolate"><path d=" M 187.5 151.554 L 262.5 194.856 L 337.5 151.554 L 262.5 108.253 L 187.5 151.554 Z " fill="rgb(191,70,70)" vector-effect="non-scaling-stroke" stroke-width="1" stroke="rgb(0,0,0)" stroke-linejoin="miter" stroke-linecap="square" stroke-miterlimit="3"/><path d=" M 187.5 151.554 L 187.5 64.952 L 262.5 108.253 L 262.5 194.856 L 187.5 151.554 Z " fill="rgb(191,70,70)" vector-effect="non-scaling-stroke" stroke-width="1" stroke="rgb(0,0,0)" stroke-linejoin="miter" stroke-linecap="square" stroke-miterlimit="3"/><path d=" M 262.5 108.253 L 337.5 64.952 L 337.5 151.554 L 262.5 194.856 L 262.5 108.253 Z " fill="rgb(191,70,70)" vector-effect="non-scaling-stroke" stroke-width="1" stroke="rgb(0,0,0)" stroke-linejoin="miter" stroke-linecap="square" stroke-miterlimit="3"/><path d=" M 187.5 64.952 L 262.5 21.651 L 337.5 64.952 L 262.5 108.253 L 187.5 64.952 Z " fill="rgb(191,70,70)" vector-effect="non-scaling-stroke" stroke-width="1" stroke="rgb(0,0,0)" stroke-linejoin="miter" stroke-linecap="square" stroke-miterlimit="3"/></g><g style="isolation:isolate"><path d=" M 212.5 93.819 L 237.5 108.253 L 250 129.904 L 250 158.771 L 237.5 165.988 L 212.5 151.554 L 200 129.904 L 200 101.036 L 212.5 93.819 Z " fill="rgb(255,255,255)" vector-effect="non-scaling-stroke" stroke-width="1" stroke="rgb(0,0,0)" stroke-linejoin="miter" stroke-linecap="square" stroke-miterlimit="3"/><line x1="225" y1="129.904" x2="225" y2="108.253" vector-effect="non-scaling-stroke" stroke-width="1" stroke="rgb(0,0,0)" stroke-linejoin="miter" stroke-linecap="square" stroke-miterlimit="3"/><line x1="225" y1="129.904" x2="237.5" y2="122.687" vector-effect="non-scaling-stroke" stroke-width="1" stroke="rgb(0,0,0)" stroke-linejoin="miter" stroke-linecap="square" stroke-miterlimit="3"/><line x1="225" y1="101.036" x2="225" y2="104.645" vector-effect="non-scaling-stroke" stroke-width="1" stroke="rgb(0,0,0)" stroke-linejoin="miter" stroke-linecap="square" stroke-miterlimit="3"/><line x1="243.75" y1="119.078" x2="240.625" y2="120.883" vector-effect="non-scaling-stroke" stroke-width="1" stroke="rgb(0,0,0)" stroke-linejoin="miter" stroke-linecap="square" stroke-miterlimit="3"/><line x1="225" y1="158.771" x2="225" y2="155.163" vector-effect="non-scaling-stroke" stroke-width="1" stroke="rgb(0,0,0)" stroke-linejoin="miter" stroke-linecap="square" stroke-miterlimit="3"/><line x1="206.25" y1="140.729" x2="209.375" y2="138.925" vector-effect="non-scaling-stroke" stroke-width="1" stroke="rgb(0,0,0)" stroke-linejoin="miter" stroke-linecap="square" stroke-miterlimit="3"/><line x1="200" y1="115.47" x2="203.125" y2="117.274" vector-effect="non-scaling-stroke" stroke-width="1" stroke="rgb(0,0,0)" stroke-linejoin="miter" stroke-linecap="square" stroke-miterlimit="3"/><line x1="250" y1="144.338" x2="246.875" y2="142.533" vector-effect="non-scaling-stroke" stroke-width="1" stroke="rgb(0,0,0)" stroke-linejoin="miter" stroke-linecap="square" stroke-miterlimit="3"/><line x1="206.25" y1="97.428" x2="208.25" y2="100.75" vector-effect="non-scaling-stroke" stroke-width="1" stroke="rgb(0,0,0)" stroke-linejoin="miter" stroke-linecap="square" stroke-miterlimit="3"/><line x1="243.75" y1="162.38" x2="241.625" y2="158.875" vector-effect="non-scaling-stroke" stroke-width="1" stroke="rgb(0,0,0)" stroke-linejoin="miter" stroke-linecap="square" stroke-miterlimit="3"/></g><g style="isolation:isolate"><path d=" M 262.5 122.687 L 162.5 64.952 L 262.5 7.217 L 362.5 64.952 L 262.5 122.687 Z " fill="rgb(116,116,116)" vector-effect="non-scaling-stroke" stroke-width="1" stroke="rgb(0,0,0)" stroke-linejoin="miter" stroke-linecap="square" stroke-miterlimit="3"/><line x1="262.5" y1="7.217" x2="262.5" y2="122.687" vector-effect="non-scaling-stroke" stroke-width="1" stroke="rgb(0,0,0)" stroke-linejoin="miter" stroke-linecap="square" stroke-miterlimit="3"/></g></g><g style="isolation:isolate"><g style="isolation:isolate"><path d=" M 0 144.338 L -75 187.639 L 487.5 512.398 L 562.5 469.097 L 0 144.338 Z " fill="rgb(255,216,158)" vector-effect="non-scaling-stroke" stroke-width="1" stroke="rgb(0,0,0)" stroke-linejoin="miter" stroke-linecap="square" stroke-miterlimit="3"/><line x1="375" y1="360.844" x2="300" y2="404.145" vector-effect="non-scaling-stroke" stroke-width="1" stroke="rgb(0,0,0)" stroke-linejoin="miter" stroke-linecap="square" stroke-miterlimit="3"/><line x1="275" y1="303.109" x2="200" y2="346.41" vector-effect="non-scaling-stroke" stroke-width="1" stroke="rgb(0,0,0)" stroke-linejoin="miter" stroke-linecap="square" stroke-miterlimit="3"/><line x1="175" y1="245.374" x2="100" y2="288.675" vector-effect="non-scaling-stroke" stroke-width="1" stroke="rgb(0,0,0)" stroke-linejoin="miter" stroke-linecap="square" stroke-miterlimit="3"/><line x1="75" y1="187.639" x2="0" y2="230.94" vector-effect="non-scaling-stroke" stroke-width="1" stroke="rgb(0,0,0)" stroke-linejoin="miter" stroke-linecap="square" stroke-miterlimit="3"/><line x1="475" y1="418.579" x2="400" y2="461.88" vector-effect="non-scaling-stroke" stroke-width="1" stroke="rgb(0,0,0)" stroke-linejoin="miter" stroke-linecap="square" stroke-miterlimit="3"/></g><path d=" M 487.5 512.398 L -75 187.639 L -87.5 194.856 L 475 519.615 L 487.5 512.398 Z " fill="rgb(236,202,151)" vector-effect="non-scaling-stroke" stroke-width="1" stroke="rgb(0,0,0)" stroke-linejoin="miter" stroke-linecap="square" stroke-miterlimit="3"/></g><path d=" M 450 505.181 L 225 635.085 L -225 375.278 L 0 245.374 L 450 505.181 Z " fill="rgb(40,40,40)" vector-effect="non-scaling-stroke" stroke-width="1" stroke="rgb(0,0,0)" stroke-linejoin="miter" stroke-linecap="square" stroke-miterlimit="3"/></g></svg>